<svg width="228" height="24" viewBox="0 0 228 24" fill="none" xmlns="http://www.w3.org/2000/svg">
<path d="M38.312 18.16C37.5973 18.16 36.9573 17.9733 36.392 17.6C35.8373 17.216 35.3893 16.752 35.048 16.208V21.408H34.248V9.68H34.984V11.344C35.3253 10.8107 35.7733 10.3787 36.328 10.048C36.8933 9.70667 37.496 9.536 38.136 9.536C38.712 9.536 39.2453 9.65867 39.736 9.904C40.2267 10.1493 40.648 10.4747 41 10.88C41.352 11.2747 41.624 11.7333 41.816 12.256C42.0187 12.7787 42.12 13.312 42.12 13.856C42.12 14.432 42.0293 14.9813 41.848 15.504C41.6667 16.0267 41.4053 16.4853 41.064 16.88C40.7333 17.2747 40.3333 17.5893 39.864 17.824C39.3947 18.048 38.8773 18.16 38.312 18.16ZM38.12 17.44C38.6 17.44 39.0373 17.3387 39.432 17.136C39.8267 16.9333 40.1627 16.6667 40.44 16.336C40.7173 15.9947 40.9307 15.6107 41.08 15.184C41.2293 14.7467 41.304 14.304 41.304 13.856C41.304 13.376 41.2187 12.9227 41.048 12.496C40.8773 12.0587 40.6373 11.6747 40.328 11.344C40.0293 11.0133 39.6773 10.752 39.272 10.56C38.8667 10.3573 38.4347 10.256 37.976 10.256C37.688 10.256 37.3787 10.32 37.048 10.448C36.728 10.5653 36.424 10.7307 36.136 10.944C35.848 11.1467 35.6027 11.3813 35.4 11.648C35.1973 11.9147 35.08 12.1973 35.048 12.496V15.232C35.1867 15.5413 35.3627 15.8293 35.576 16.096C35.7893 16.3627 36.0293 16.5973 36.296 16.8C36.5627 17.0027 36.8507 17.1627 37.16 17.28C37.4693 17.3867 37.7893 17.44 38.12 17.44ZM47.9809 10.4C47.2342 10.4213 46.5782 10.6453 46.0129 11.072C45.4582 11.488 45.0689 12.064 44.8449 12.8V18H44.0449V9.68H44.8129V11.728C45.1009 11.1413 45.4795 10.6667 45.9489 10.304C46.4289 9.93067 46.9409 9.71733 47.4849 9.664C47.5915 9.65333 47.6875 9.648 47.7729 9.648C47.8582 9.648 47.9275 9.648 47.9809 9.648V10.4ZM52.5641 18.16C51.9775 18.16 51.4335 18.048 50.9321 17.824C50.4415 17.5893 50.0148 17.2747 49.6521 16.88C49.2895 16.4853 49.0068 16.0267 48.8041 15.504C48.6015 14.9813 48.5001 14.432 48.5001 13.856C48.5001 13.2693 48.6015 12.7147 48.8041 12.192C49.0175 11.6693 49.3055 11.2107 49.6681 10.816C50.0308 10.4213 50.4575 10.112 50.9481 9.888C51.4495 9.65333 51.9881 9.536 52.5641 9.536C53.1401 9.536 53.6735 9.65333 54.1641 9.888C54.6548 10.112 55.0815 10.4213 55.4441 10.816C55.8175 11.2107 56.1055 11.6693 56.3081 12.192C56.5215 12.7147 56.6281 13.2693 56.6281 13.856C56.6281 14.432 56.5215 14.9813 56.3081 15.504C56.1055 16.0267 55.8228 16.4853 55.4601 16.88C55.0975 17.2747 54.6655 17.5893 54.1641 17.824C53.6735 18.048 53.1401 18.16 52.5641 18.16ZM49.3001 13.888C49.3001 14.3787 49.3855 14.8427 49.5561 15.28C49.7268 15.7067 49.9561 16.08 50.2441 16.4C50.5428 16.72 50.8895 16.976 51.2841 17.168C51.6788 17.3493 52.1001 17.44 52.5481 17.44C52.9961 17.44 53.4175 17.3493 53.8121 17.168C54.2068 16.976 54.5535 16.7147 54.8521 16.384C55.1508 16.0533 55.3855 15.6747 55.5561 15.248C55.7268 14.8107 55.8121 14.3413 55.8121 13.84C55.8121 13.3493 55.7268 12.8907 55.5561 12.464C55.3855 12.0267 55.1508 11.648 54.8521 11.328C54.5535 10.9973 54.2068 10.736 53.8121 10.544C53.4281 10.352 53.0121 10.256 52.5641 10.256C52.1161 10.256 51.6948 10.352 51.3001 10.544C50.9055 10.736 50.5588 10.9973 50.2601 11.328C49.9721 11.6587 49.7375 12.048 49.5561 12.496C49.3855 12.9333 49.3001 13.3973 49.3001 13.888ZM61.9049 18.128C61.3289 18.128 60.8009 18.0107 60.3209 17.776C59.8409 17.5307 59.4249 17.2107 59.0729 16.816C58.7315 16.4107 58.4595 15.952 58.2569 15.44C58.0649 14.928 57.9689 14.4 57.9689 13.856C57.9689 13.2907 58.0595 12.7467 58.2409 12.224C58.4329 11.7013 58.6995 11.2427 59.0409 10.848C59.3822 10.4427 59.7875 10.1227 60.2569 9.888C60.7369 9.65333 61.2649 9.536 61.8409 9.536C62.5662 9.536 63.1955 9.728 63.7289 10.112C64.2729 10.4853 64.7315 10.944 65.1049 11.488V9.68H65.8409V18.16C65.8409 18.7253 65.7342 19.2213 65.5209 19.648C65.3075 20.0747 65.0195 20.4267 64.6569 20.704C64.3049 20.992 63.8889 21.2053 63.4089 21.344C62.9395 21.4933 62.4435 21.568 61.9209 21.568C61.4409 21.568 61.0089 21.52 60.6249 21.424C60.2409 21.3387 59.8995 21.2107 59.6009 21.04C59.3129 20.88 59.0515 20.6773 58.8169 20.432C58.5929 20.1973 58.3955 19.936 58.2249 19.648L58.7689 19.28C59.0995 19.8453 59.5475 20.256 60.1129 20.512C60.6782 20.7787 61.2809 20.912 61.9209 20.912C62.3475 20.912 62.7475 20.8533 63.1209 20.736C63.5049 20.6187 63.8355 20.4427 64.1129 20.208C64.4009 19.984 64.6249 19.7013 64.7849 19.36C64.9555 19.0187 65.0409 18.6187 65.0409 18.16V16.336C64.6995 16.88 64.2462 17.3173 63.6809 17.648C63.1155 17.968 62.5235 18.128 61.9049 18.128ZM62.0969 17.44C62.4489 17.44 62.7902 17.376 63.1209 17.248C63.4622 17.1093 63.7662 16.9333 64.0329 16.72C64.3102 16.5067 64.5342 16.2667 64.7049 16C64.8862 15.7333 64.9982 15.4667 65.0409 15.2V12.464C64.9129 12.144 64.7422 11.8507 64.5289 11.584C64.3155 11.3067 64.0702 11.072 63.7929 10.88C63.5262 10.688 63.2329 10.5387 62.9129 10.432C62.6035 10.3147 62.2889 10.256 61.9689 10.256C61.4675 10.256 61.0195 10.3627 60.6249 10.576C60.2302 10.7893 59.8942 11.0667 59.6169 11.408C59.3502 11.7493 59.1422 12.1387 58.9929 12.576C58.8542 13.0027 58.7849 13.4347 58.7849 13.872C58.7849 14.352 58.8702 14.8053 59.0409 15.232C59.2115 15.6587 59.4462 16.0373 59.7449 16.368C60.0435 16.6987 60.3955 16.96 60.8009 17.152C61.2062 17.344 61.6382 17.44 62.0969 17.44ZM72.2778 10.4C71.5311 10.4213 70.8751 10.6453 70.3098 11.072C69.7551 11.488 69.3658 12.064 69.1418 12.8V18H68.3418V9.68H69.1098V11.728C69.3978 11.1413 69.7764 10.6667 70.2458 10.304C70.7258 9.93067 71.2378 9.71733 71.7818 9.664C71.8884 9.65333 71.9844 9.648 72.0698 9.648C72.1551 9.648 72.2244 9.648 72.2778 9.648V10.4ZM76.909 18.16C76.3223 18.16 75.7783 18.048 75.277 17.824C74.7757 17.5893 74.3383 17.2747 73.965 16.88C73.6023 16.4747 73.3143 16.0107 73.101 15.488C72.8983 14.9653 72.797 14.4053 72.797 13.808C72.797 13.2213 72.8983 12.672 73.101 12.16C73.3143 11.6373 73.6023 11.184 73.965 10.8C74.3277 10.4053 74.7543 10.096 75.245 9.872C75.7463 9.648 76.285 9.536 76.861 9.536C77.4477 9.536 77.9917 9.65333 78.493 9.888C78.9943 10.112 79.4263 10.4213 79.789 10.816C80.1517 11.2 80.4343 11.6533 80.637 12.176C80.8397 12.688 80.941 13.232 80.941 13.808C80.941 13.8613 80.941 13.9307 80.941 14.016C80.941 14.0907 80.9357 14.1387 80.925 14.16H73.629C73.661 14.64 73.773 15.088 73.965 15.504C74.157 15.9093 74.397 16.2613 74.685 16.56C74.9837 16.8587 75.325 17.0933 75.709 17.264C76.093 17.4347 76.5037 17.52 76.941 17.52C77.229 17.52 77.5117 17.4827 77.789 17.408C78.0663 17.3227 78.3223 17.2107 78.557 17.072C78.8023 16.9333 79.0157 16.768 79.197 16.576C79.389 16.3733 79.5383 16.1547 79.645 15.92L80.349 16.112C80.2317 16.4107 80.0557 16.688 79.821 16.944C79.597 17.1893 79.3303 17.4027 79.021 17.584C78.7223 17.7653 78.3917 17.904 78.029 18C77.6663 18.1067 77.293 18.16 76.909 18.16ZM80.173 13.52C80.141 13.0293 80.029 12.5813 79.837 12.176C79.6557 11.7707 79.4157 11.424 79.117 11.136C78.829 10.8373 78.493 10.608 78.109 10.448C77.725 10.2773 77.3143 10.192 76.877 10.192C76.4397 10.192 76.029 10.2773 75.645 10.448C75.261 10.608 74.9197 10.8373 74.621 11.136C74.333 11.424 74.0983 11.776 73.917 12.192C73.7463 12.5973 73.645 13.04 73.613 13.52H80.173ZM85.3411 18.16C84.7011 18.16 84.0878 18.0533 83.5011 17.84C82.9145 17.6267 82.4025 17.3067 81.9651 16.88L82.3651 16.336C82.8131 16.7413 83.2771 17.04 83.7571 17.232C84.2371 17.424 84.7651 17.52 85.3411 17.52C86.0665 17.52 86.6478 17.3707 87.0851 17.072C87.5331 16.7627 87.7571 16.336 87.7571 15.792C87.7571 15.536 87.6985 15.3227 87.5811 15.152C87.4745 14.9707 87.3091 14.8213 87.0851 14.704C86.8611 14.576 86.5838 14.464 86.2531 14.368C85.9225 14.272 85.5385 14.1707 85.1011 14.064C84.6318 13.9573 84.2211 13.8507 83.8691 13.744C83.5278 13.6373 83.2451 13.5093 83.0211 13.36C82.7971 13.2107 82.6265 13.0293 82.5091 12.816C82.4025 12.6027 82.3491 12.3307 82.3491 12C82.3491 11.584 82.4291 11.2213 82.5891 10.912C82.7491 10.6027 82.9678 10.3467 83.2451 10.144C83.5331 9.94133 83.8585 9.792 84.2211 9.696C84.5945 9.58933 84.9891 9.536 85.4051 9.536C86.0558 9.536 86.6318 9.648 87.1331 9.872C87.6345 10.0853 88.0238 10.3627 88.3011 10.704L87.8531 11.136C87.5758 10.816 87.2131 10.576 86.7651 10.416C86.3278 10.256 85.8585 10.176 85.3571 10.176C85.0478 10.176 84.7545 10.208 84.4771 10.272C84.2105 10.336 83.9758 10.4373 83.7731 10.576C83.5705 10.7147 83.4105 10.896 83.2931 11.12C83.1758 11.3333 83.1171 11.5893 83.1171 11.888C83.1171 12.1333 83.1545 12.3307 83.2291 12.48C83.3145 12.6293 83.4425 12.7573 83.6131 12.864C83.7945 12.9707 84.0238 13.0667 84.3011 13.152C84.5785 13.2267 84.9091 13.312 85.2931 13.408C85.8158 13.536 86.2798 13.6587 86.6851 13.776C87.0905 13.8933 87.4265 14.0373 87.6931 14.208C87.9705 14.3787 88.1785 14.5813 88.3171 14.816C88.4665 15.0507 88.5411 15.3493 88.5411 15.712C88.5411 16.4587 88.2478 17.056 87.6611 17.504C87.0851 17.9413 86.3118 18.16 85.3411 18.16ZM93.0443 18.16C92.4043 18.16 91.7909 18.0533 91.2043 17.84C90.6176 17.6267 90.1056 17.3067 89.6683 16.88L90.0683 16.336C90.5163 16.7413 90.9803 17.04 91.4603 17.232C91.9403 17.424 92.4683 17.52 93.0443 17.52C93.7696 17.52 94.3509 17.3707 94.7883 17.072C95.2363 16.7627 95.4603 16.336 95.4603 15.792C95.4603 15.536 95.4016 15.3227 95.2843 15.152C95.1776 14.9707 95.0123 14.8213 94.7883 14.704C94.5643 14.576 94.2869 14.464 93.9563 14.368C93.6256 14.272 93.2416 14.1707 92.8043 14.064C92.3349 13.9573 91.9243 13.8507 91.5723 13.744C91.2309 13.6373 90.9483 13.5093 90.7243 13.36C90.5003 13.2107 90.3296 13.0293 90.2122 12.816C90.1056 12.6027 90.0523 12.3307 90.0523 12C90.0523 11.584 90.1323 11.2213 90.2923 10.912C90.4523 10.6027 90.6709 10.3467 90.9483 10.144C91.2363 9.94133 91.5616 9.792 91.9243 9.696C92.2976 9.58933 92.6923 9.536 93.1083 9.536C93.7589 9.536 94.3349 9.648 94.8363 9.872C95.3376 10.0853 95.7269 10.3627 96.0043 10.704L95.5563 11.136C95.2789 10.816 94.9163 10.576 94.4683 10.416C94.0309 10.256 93.5616 10.176 93.0603 10.176C92.7509 10.176 92.4576 10.208 92.1803 10.272C91.9136 10.336 91.6789 10.4373 91.4763 10.576C91.2736 10.7147 91.1136 10.896 90.9963 11.12C90.8789 11.3333 90.8203 11.5893 90.8203 11.888C90.8203 12.1333 90.8576 12.3307 90.9323 12.48C91.0176 12.6293 91.1456 12.7573 91.3163 12.864C91.4976 12.9707 91.7269 13.0667 92.0043 13.152C92.2816 13.2267 92.6123 13.312 92.9963 13.408C93.5189 13.536 93.9829 13.6587 94.3883 13.776C94.7936 13.8933 95.1296 14.0373 95.3963 14.208C95.6736 14.3787 95.8816 14.5813 96.0203 14.816C96.1696 15.0507 96.2443 15.3493 96.2443 15.712C96.2443 16.4587 95.9509 17.056 95.3643 17.504C94.7883 17.9413 94.0149 18.16 93.0443 18.16ZM97.9314 18V16.64H98.6354V18H97.9314ZM103.576 18.16C102.936 18.16 102.322 18.0533 101.736 17.84C101.149 17.6267 100.637 17.3067 100.2 16.88L100.6 16.336C101.048 16.7413 101.512 17.04 101.992 17.232C102.472 17.424 103 17.52 103.576 17.52C104.301 17.52 104.882 17.3707 105.32 17.072C105.768 16.7627 105.992 16.336 105.992 15.792C105.992 15.536 105.933 15.3227 105.816 15.152C105.709 14.9707 105.544 14.8213 105.32 14.704C105.096 14.576 104.818 14.464 104.488 14.368C104.157 14.272 103.773 14.1707 103.336 14.064C102.866 13.9573 102.456 13.8507 102.104 13.744C101.762 13.6373 101.48 13.5093 101.256 13.36C101.032 13.2107 100.861 13.0293 100.743 12.816C100.637 12.6027 100.584 12.3307 100.584 12C100.584 11.584 100.664 11.2213 100.824 10.912C100.984 10.6027 101.202 10.3467 101.48 10.144C101.768 9.94133 102.093 9.792 102.456 9.696C102.829 9.58933 103.224 9.536 103.64 9.536C104.29 9.536 104.866 9.648 105.368 9.872C105.869 10.0853 106.258 10.3627 106.536 10.704L106.088 11.136C105.81 10.816 105.448 10.576 105 10.416C104.562 10.256 104.093 10.176 103.592 10.176C103.282 10.176 102.989 10.208 102.712 10.272C102.445 10.336 102.21 10.4373 102.008 10.576C101.805 10.7147 101.645 10.896 101.528 11.12C101.41 11.3333 101.352 11.5893 101.352 11.888C101.352 12.1333 101.389 12.3307 101.464 12.48C101.549 12.6293 101.677 12.7573 101.848 12.864C102.029 12.9707 102.258 13.0667 102.536 13.152C102.813 13.2267 103.144 13.312 103.528 13.408C104.05 13.536 104.514 13.6587 104.92 13.776C105.325 13.8933 105.661 14.0373 105.928 14.208C106.205 14.3787 106.413 14.5813 106.552 14.816C106.701 15.0507 106.776 15.3493 106.776 15.712C106.776 16.4587 106.482 17.056 105.896 17.504C105.32 17.9413 104.546 18.16 103.576 18.16ZM112.127 18.16C111.54 18.16 110.996 18.048 110.495 17.824C110.004 17.5893 109.577 17.2747 109.215 16.88C108.852 16.4853 108.569 16.0267 108.367 15.504C108.164 14.9813 108.063 14.432 108.063 13.856C108.063 13.2693 108.164 12.7147 108.367 12.192C108.58 11.6693 108.868 11.2107 109.231 10.816C109.593 10.4213 110.02 10.112 110.511 9.888C111.012 9.65333 111.551 9.536 112.127 9.536C112.703 9.536 113.236 9.65333 113.727 9.888C114.217 10.112 114.644 10.4213 115.007 10.816C115.38 11.2107 115.668 11.6693 115.871 12.192C116.084 12.7147 116.191 13.2693 116.191 13.856C116.191 14.432 116.084 14.9813 115.871 15.504C115.668 16.0267 115.385 16.4853 115.023 16.88C114.66 17.2747 114.228 17.5893 113.727 17.824C113.236 18.048 112.703 18.16 112.127 18.16ZM108.863 13.888C108.863 14.3787 108.948 14.8427 109.119 15.28C109.289 15.7067 109.519 16.08 109.807 16.4C110.105 16.72 110.452 16.976 110.847 17.168C111.241 17.3493 111.663 17.44 112.111 17.44C112.559 17.44 112.98 17.3493 113.375 17.168C113.769 16.976 114.116 16.7147 114.415 16.384C114.713 16.0533 114.948 15.6747 115.119 15.248C115.289 14.8107 115.375 14.3413 115.375 13.84C115.375 13.3493 115.289 12.8907 115.119 12.464C114.948 12.0267 114.713 11.648 114.415 11.328C114.116 10.9973 113.769 10.736 113.375 10.544C112.991 10.352 112.575 10.256 112.127 10.256C111.679 10.256 111.257 10.352 110.863 10.544C110.468 10.736 110.121 10.9973 109.823 11.328C109.535 11.6587 109.3 12.048 109.119 12.496C108.948 12.9333 108.863 13.3973 108.863 13.888ZM118.35 18V10.336H117.182V9.68H118.35V9.408C118.35 8.384 118.558 7.58933 118.974 7.024C119.39 6.448 119.966 6.16 120.702 6.16C121.022 6.16 121.332 6.208 121.63 6.304C121.929 6.4 122.174 6.528 122.366 6.688L122.078 7.264C121.929 7.14667 121.742 7.05067 121.518 6.976C121.305 6.90133 121.081 6.864 120.846 6.864C120.302 6.864 119.881 7.08267 119.582 7.52C119.294 7.94667 119.15 8.57067 119.15 9.392V9.68H121.518V10.336H119.15V18H118.35ZM124.999 18.16C124.615 18.16 124.258 18.096 123.927 17.968C123.596 17.8293 123.303 17.648 123.047 17.424C122.802 17.1893 122.61 16.9173 122.471 16.608C122.332 16.288 122.263 15.9467 122.263 15.584C122.263 15.2213 122.348 14.8907 122.519 14.592C122.69 14.2933 122.924 14.0373 123.223 13.824C123.532 13.6 123.9 13.4293 124.327 13.312C124.754 13.184 125.223 13.12 125.735 13.12C126.183 13.12 126.631 13.1627 127.079 13.248C127.538 13.3227 127.948 13.4293 128.311 13.568V12.752C128.311 11.9627 128.087 11.3387 127.639 10.88C127.191 10.4107 126.583 10.176 125.815 10.176C125.41 10.176 124.978 10.2613 124.519 10.432C124.071 10.6027 123.612 10.848 123.143 11.168L122.839 10.624C123.906 9.89867 124.919 9.536 125.879 9.536C126.882 9.536 127.671 9.82933 128.247 10.416C128.823 10.992 129.111 11.792 129.111 12.816V16.88C129.111 17.1467 129.228 17.28 129.463 17.28V18C129.41 18.0107 129.351 18.016 129.287 18.016C129.234 18.0267 129.186 18.032 129.143 18.032C128.93 18.032 128.759 17.9627 128.631 17.824C128.503 17.6747 128.428 17.4987 128.407 17.296V16.608C128.023 17.1093 127.532 17.4933 126.935 17.76C126.338 18.0267 125.692 18.16 124.999 18.16ZM125.159 17.52C125.778 17.52 126.343 17.4027 126.855 17.168C127.378 16.9333 127.778 16.624 128.055 16.24C128.226 16.016 128.311 15.8027 128.311 15.6V14.128C127.927 13.9787 127.527 13.8667 127.111 13.792C126.695 13.7173 126.263 13.68 125.815 13.68C125.399 13.68 125.02 13.728 124.679 13.824C124.338 13.9093 124.044 14.032 123.799 14.192C123.554 14.352 123.362 14.5493 123.223 14.784C123.095 15.008 123.031 15.2587 123.031 15.536C123.031 15.8133 123.084 16.0747 123.191 16.32C123.298 16.5653 123.447 16.7787 123.639 16.96C123.831 17.1307 124.055 17.2693 124.311 17.376C124.578 17.472 124.86 17.52 125.159 17.52ZM134.185 18.16C133.545 18.16 132.932 18.0533 132.345 17.84C131.758 17.6267 131.246 17.3067 130.809 16.88L131.209 16.336C131.657 16.7413 132.121 17.04 132.601 17.232C133.081 17.424 133.609 17.52 134.185 17.52C134.91 17.52 135.492 17.3707 135.929 17.072C136.377 16.7627 136.601 16.336 136.601 15.792C136.601 15.536 136.542 15.3227 136.425 15.152C136.318 14.9707 136.153 14.8213 135.929 14.704C135.705 14.576 135.428 14.464 135.097 14.368C134.766 14.272 134.382 14.1707 133.945 14.064C133.476 13.9573 133.065 13.8507 132.713 13.744C132.372 13.6373 132.089 13.5093 131.865 13.36C131.641 13.2107 131.47 13.0293 131.353 12.816C131.246 12.6027 131.193 12.3307 131.193 12C131.193 11.584 131.273 11.2213 131.433 10.912C131.593 10.6027 131.812 10.3467 132.089 10.144C132.377 9.94133 132.702 9.792 133.065 9.696C133.438 9.58933 133.833 9.536 134.249 9.536C134.9 9.536 135.476 9.648 135.977 9.872C136.478 10.0853 136.868 10.3627 137.145 10.704L136.697 11.136C136.42 10.816 136.057 10.576 135.609 10.416C135.172 10.256 134.702 10.176 134.201 10.176C133.892 10.176 133.598 10.208 133.321 10.272C133.054 10.336 132.82 10.4373 132.617 10.576C132.414 10.7147 132.254 10.896 132.137 11.12C132.02 11.3333 131.961 11.5893 131.961 11.888C131.961 12.1333 131.998 12.3307 132.073 12.48C132.158 12.6293 132.286 12.7573 132.457 12.864C132.638 12.9707 132.868 13.0667 133.145 13.152C133.422 13.2267 133.753 13.312 134.137 13.408C134.66 13.536 135.124 13.6587 135.529 13.776C135.934 13.8933 136.27 14.0373 136.537 14.208C136.814 14.3787 137.022 14.5813 137.161 14.816C137.31 15.0507 137.385 15.3493 137.385 15.712C137.385 16.4587 137.092 17.056 136.505 17.504C135.929 17.9413 135.156 18.16 134.185 18.16ZM144.656 8.352C145.445 8.352 146.187 8.50667 146.88 8.816C147.584 9.11467 148.197 9.536 148.72 10.08C149.253 10.6133 149.669 11.2533 149.968 12C150.277 12.7467 150.432 13.5627 150.432 14.448C150.432 14.5973 150.421 14.8 150.4 15.056C150.389 15.3013 150.357 15.568 150.304 15.856C150.251 16.1333 150.171 16.416 150.064 16.704C149.968 16.992 149.835 17.2533 149.664 17.488C149.493 17.712 149.28 17.8933 149.024 18.032C148.779 18.1813 148.48 18.256 148.128 18.256C147.861 18.256 147.648 18.2133 147.488 18.128C147.328 18.0533 147.2 17.9467 147.104 17.808C147.019 17.6693 146.955 17.5093 146.912 17.328C146.88 17.136 146.853 16.9387 146.832 16.736C146.544 17.0453 146.16 17.312 145.68 17.536C145.211 17.76 144.699 17.872 144.144 17.872C143.408 17.872 142.827 17.6747 142.4 17.28C141.973 16.8853 141.76 16.384 141.76 15.776C141.76 15.3813 141.845 15.0507 142.016 14.784C142.197 14.5067 142.427 14.288 142.704 14.128C142.992 13.968 143.307 13.856 143.648 13.792C144 13.7173 144.352 13.68 144.704 13.68C145.184 13.68 145.605 13.728 145.968 13.824C146.331 13.9093 146.603 13.984 146.784 14.048C146.784 13.6427 146.752 13.2747 146.688 12.944C146.624 12.6027 146.517 12.3147 146.368 12.08C146.219 11.8347 146.011 11.648 145.744 11.52C145.477 11.3813 145.147 11.312 144.752 11.312C144.347 11.312 143.947 11.3813 143.552 11.52C143.168 11.648 142.816 11.8347 142.496 12.08L142.24 11.584C142.613 11.3387 143.013 11.1413 143.44 10.992C143.877 10.832 144.336 10.752 144.816 10.752C145.381 10.752 145.829 10.848 146.16 11.04C146.501 11.232 146.757 11.488 146.928 11.808C147.109 12.1173 147.227 12.4693 147.28 12.864C147.333 13.248 147.36 13.632 147.36 14.016V16.224C147.36 16.4587 147.365 16.672 147.376 16.864C147.397 17.056 147.435 17.2213 147.488 17.36C147.552 17.488 147.637 17.5893 147.744 17.664C147.861 17.728 148.011 17.76 148.192 17.76C148.533 17.76 148.816 17.6427 149.04 17.408C149.275 17.1733 149.456 16.8907 149.584 16.56C149.723 16.2187 149.819 15.856 149.872 15.472C149.925 15.088 149.952 14.7413 149.952 14.432C149.952 13.6533 149.813 12.9227 149.536 12.24C149.269 11.5467 148.896 10.9493 148.416 10.448C147.936 9.94667 147.371 9.552 146.72 9.264C146.08 8.96533 145.387 8.816 144.64 8.816C143.915 8.816 143.227 8.95467 142.576 9.232C141.925 9.49867 141.349 9.87733 140.848 10.368C140.357 10.8587 139.968 11.44 139.68 12.112C139.392 12.784 139.248 13.52 139.248 14.32C139.248 15.088 139.381 15.8133 139.648 16.496C139.925 17.168 140.304 17.7547 140.784 18.256C141.264 18.7573 141.829 19.152 142.48 19.44C143.131 19.728 143.829 19.872 144.576 19.872C145.429 19.872 146.245 19.6693 147.024 19.264L147.216 19.696C146.373 20.1227 145.493 20.336 144.576 20.336C143.776 20.336 143.024 20.1813 142.32 19.872C141.616 19.5733 140.997 19.152 140.464 18.608C139.941 18.0747 139.525 17.4453 139.216 16.72C138.917 15.984 138.768 15.184 138.768 14.32C138.768 13.424 138.928 12.6133 139.248 11.888C139.579 11.152 140.016 10.5227 140.56 10C141.104 9.47733 141.728 9.072 142.432 8.784C143.147 8.496 143.888 8.352 144.656 8.352ZM145.68 16.976C145.915 16.8693 146.101 16.7467 146.24 16.608C146.389 16.4693 146.501 16.3253 146.576 16.176C146.661 16.016 146.715 15.8613 146.736 15.712C146.757 15.552 146.768 15.392 146.768 15.232V14.56C146.704 14.5493 146.608 14.528 146.48 14.496C146.352 14.4533 146.197 14.4107 146.016 14.368C145.845 14.3253 145.643 14.288 145.408 14.256C145.173 14.2133 144.923 14.192 144.656 14.192C144.368 14.192 144.085 14.2187 143.808 14.272C143.531 14.3253 143.28 14.4107 143.056 14.528C142.843 14.6453 142.672 14.8053 142.544 15.008C142.416 15.2 142.352 15.4453 142.352 15.744C142.352 16.2347 142.528 16.624 142.88 16.912C143.232 17.1893 143.664 17.328 144.176 17.328C144.443 17.328 144.709 17.296 144.976 17.232C145.243 17.1573 145.477 17.072 145.68 16.976ZM155.952 18.128C155.376 18.128 154.848 18.0107 154.368 17.776C153.888 17.5307 153.472 17.2107 153.12 16.816C152.778 16.4107 152.506 15.952 152.304 15.44C152.112 14.928 152.016 14.4 152.016 13.856C152.016 13.2907 152.106 12.7467 152.288 12.224C152.48 11.7013 152.746 11.2427 153.088 10.848C153.429 10.4427 153.834 10.1227 154.304 9.888C154.784 9.65333 155.312 9.536 155.888 9.536C156.613 9.536 157.242 9.728 157.776 10.112C158.32 10.4853 158.778 10.944 159.152 11.488V9.68H159.888V18.16C159.888 18.7253 159.781 19.2213 159.568 19.648C159.354 20.0747 159.066 20.4267 158.704 20.704C158.352 20.992 157.936 21.2053 157.456 21.344C156.986 21.4933 156.49 21.568 155.968 21.568C155.488 21.568 155.056 21.52 154.672 21.424C154.288 21.3387 153.946 21.2107 153.648 21.04C153.36 20.88 153.098 20.6773 152.864 20.432C152.64 20.1973 152.442 19.936 152.272 19.648L152.816 19.28C153.146 19.8453 153.594 20.256 154.16 20.512C154.725 20.7787 155.328 20.912 155.968 20.912C156.394 20.912 156.794 20.8533 157.168 20.736C157.552 20.6187 157.882 20.4427 158.16 20.208C158.448 19.984 158.672 19.7013 158.832 19.36C159.002 19.0187 159.088 18.6187 159.088 18.16V16.336C158.746 16.88 158.293 17.3173 157.728 17.648C157.162 17.968 156.57 18.128 155.952 18.128ZM156.144 17.44C156.496 17.44 156.837 17.376 157.168 17.248C157.509 17.1093 157.813 16.9333 158.08 16.72C158.357 16.5067 158.581 16.2667 158.752 16C158.933 15.7333 159.045 15.4667 159.088 15.2V12.464C158.96 12.144 158.789 11.8507 158.576 11.584C158.362 11.3067 158.117 11.072 157.84 10.88C157.573 10.688 157.28 10.5387 156.96 10.432C156.65 10.3147 156.336 10.256 156.016 10.256C155.514 10.256 155.066 10.3627 154.672 10.576C154.277 10.7893 153.941 11.0667 153.664 11.408C153.397 11.7493 153.189 12.1387 153.04 12.576C152.901 13.0027 152.832 13.4347 152.832 13.872C152.832 14.352 152.917 14.8053 153.088 15.232C153.258 15.6587 153.493 16.0373 153.792 16.368C154.09 16.6987 154.442 16.96 154.848 17.152C155.253 17.344 155.685 17.44 156.144 17.44ZM174.613 18H173.813V13.36C173.813 12.304 173.647 11.5253 173.317 11.024C172.997 10.5227 172.501 10.272 171.829 10.272C171.487 10.272 171.162 10.336 170.853 10.464C170.543 10.592 170.261 10.7733 170.005 11.008C169.749 11.232 169.525 11.504 169.333 11.824C169.151 12.1333 169.007 12.48 168.901 12.864V18H168.101V13.36C168.101 12.2933 167.941 11.5147 167.621 11.024C167.301 10.5227 166.805 10.272 166.133 10.272C165.791 10.272 165.466 10.336 165.157 10.464C164.858 10.5813 164.581 10.7573 164.325 10.992C164.069 11.216 163.839 11.488 163.637 11.808C163.445 12.1173 163.295 12.464 163.189 12.848V18H162.389V9.68H163.141V11.664C163.482 10.992 163.93 10.4693 164.485 10.096C165.039 9.72267 165.653 9.536 166.325 9.536C167.029 9.536 167.599 9.744 168.037 10.16C168.474 10.576 168.735 11.12 168.821 11.792C169.61 10.288 170.698 9.536 172.085 9.536C172.991 9.536 173.637 9.86133 174.021 10.512C174.415 11.152 174.613 12.0533 174.613 13.216V18ZM179.077 18.16C178.693 18.16 178.336 18.096 178.005 17.968C177.675 17.8293 177.381 17.648 177.125 17.424C176.88 17.1893 176.688 16.9173 176.549 16.608C176.411 16.288 176.341 15.9467 176.341 15.584C176.341 15.2213 176.427 14.8907 176.597 14.592C176.768 14.2933 177.003 14.0373 177.301 13.824C177.611 13.6 177.979 13.4293 178.405 13.312C178.832 13.184 179.301 13.12 179.813 13.12C180.261 13.12 180.709 13.1627 181.157 13.248C181.616 13.3227 182.027 13.4293 182.389 13.568V12.752C182.389 11.9627 182.165 11.3387 181.717 10.88C181.269 10.4107 180.661 10.176 179.893 10.176C179.488 10.176 179.056 10.2613 178.597 10.432C178.149 10.6027 177.691 10.848 177.221 11.168L176.917 10.624C177.984 9.89867 178.997 9.536 179.957 9.536C180.96 9.536 181.749 9.82933 182.325 10.416C182.901 10.992 183.189 11.792 183.189 12.816V16.88C183.189 17.1467 183.307 17.28 183.541 17.28V18C183.488 18.0107 183.429 18.016 183.365 18.016C183.312 18.0267 183.264 18.032 183.221 18.032C183.008 18.032 182.837 17.9627 182.709 17.824C182.581 17.6747 182.507 17.4987 182.485 17.296V16.608C182.101 17.1093 181.611 17.4933 181.013 17.76C180.416 18.0267 179.771 18.16 179.077 18.16ZM179.237 17.52C179.856 17.52 180.421 17.4027 180.933 17.168C181.456 16.9333 181.856 16.624 182.133 16.24C182.304 16.016 182.389 15.8027 182.389 15.6V14.128C182.005 13.9787 181.605 13.8667 181.189 13.792C180.773 13.7173 180.341 13.68 179.893 13.68C179.477 13.68 179.099 13.728 178.757 13.824C178.416 13.9093 178.123 14.032 177.877 14.192C177.632 14.352 177.44 14.5493 177.301 14.784C177.173 15.008 177.109 15.2587 177.109 15.536C177.109 15.8133 177.163 16.0747 177.269 16.32C177.376 16.5653 177.525 16.7787 177.717 16.96C177.909 17.1307 178.133 17.2693 178.389 17.376C178.656 17.472 178.939 17.52 179.237 17.52ZM185.623 18V9.68H186.423V18H185.623ZM185.623 7.792V6.32H186.423V7.792H185.623ZM189 6.32H189.816V16.352C189.816 16.6613 189.901 16.9067 190.072 17.088C190.253 17.2693 190.498 17.36 190.808 17.36C190.925 17.36 191.064 17.3493 191.224 17.328C191.394 17.296 191.549 17.2533 191.688 17.2L191.848 17.84C191.666 17.9147 191.442 17.9733 191.176 18.016C190.909 18.0693 190.68 18.096 190.488 18.096C190.04 18.096 189.677 17.9627 189.4 17.696C189.133 17.4187 189 17.0507 189 16.592V6.32ZM192.9 18V16.64H193.604V18H192.9ZM195.328 13.808C195.328 13.2213 195.43 12.6667 195.632 12.144C195.835 11.6213 196.118 11.168 196.48 10.784C196.843 10.4 197.275 10.096 197.776 9.872C198.278 9.648 198.827 9.536 199.424 9.536C200.182 9.536 200.848 9.70667 201.424 10.048C202 10.3893 202.432 10.864 202.72 11.472L201.936 11.728C201.691 11.2693 201.339 10.912 200.88 10.656C200.432 10.3893 199.936 10.256 199.392 10.256C198.934 10.256 198.507 10.3467 198.112 10.528C197.718 10.7093 197.371 10.96 197.072 11.28C196.784 11.6 196.555 11.9787 196.384 12.416C196.214 12.8427 196.128 13.3067 196.128 13.808C196.128 14.3093 196.214 14.784 196.384 15.232C196.566 15.6693 196.8 16.0533 197.088 16.384C197.387 16.704 197.734 16.96 198.128 17.152C198.534 17.344 198.96 17.44 199.408 17.44C199.696 17.44 199.979 17.3973 200.256 17.312C200.544 17.2267 200.806 17.1147 201.04 16.976C201.286 16.8373 201.494 16.6773 201.664 16.496C201.846 16.304 201.968 16.1067 202.032 15.904L202.816 16.128C202.71 16.416 202.544 16.688 202.32 16.944C202.107 17.1893 201.851 17.4027 201.552 17.584C201.254 17.7653 200.923 17.904 200.56 18C200.198 18.1067 199.824 18.16 199.44 18.16C198.854 18.16 198.31 18.048 197.808 17.824C197.307 17.5893 196.87 17.2747 196.496 16.88C196.134 16.4747 195.846 16.0107 195.632 15.488C195.43 14.9653 195.328 14.4053 195.328 13.808ZM208.033 18.16C207.446 18.16 206.902 18.048 206.401 17.824C205.91 17.5893 205.484 17.2747 205.121 16.88C204.758 16.4853 204.476 16.0267 204.273 15.504C204.07 14.9813 203.969 14.432 203.969 13.856C203.969 13.2693 204.07 12.7147 204.273 12.192C204.486 11.6693 204.774 11.2107 205.137 10.816C205.5 10.4213 205.926 10.112 206.417 9.888C206.918 9.65333 207.457 9.536 208.033 9.536C208.609 9.536 209.142 9.65333 209.633 9.888C210.124 10.112 210.55 10.4213 210.913 10.816C211.286 11.2107 211.574 11.6693 211.777 12.192C211.99 12.7147 212.097 13.2693 212.097 13.856C212.097 14.432 211.99 14.9813 211.777 15.504C211.574 16.0267 211.292 16.4853 210.929 16.88C210.566 17.2747 210.134 17.5893 209.633 17.824C209.142 18.048 208.609 18.16 208.033 18.16ZM204.769 13.888C204.769 14.3787 204.854 14.8427 205.025 15.28C205.196 15.7067 205.425 16.08 205.713 16.4C206.012 16.72 206.358 16.976 206.753 17.168C207.148 17.3493 207.569 17.44 208.017 17.44C208.465 17.44 208.886 17.3493 209.281 17.168C209.676 16.976 210.022 16.7147 210.321 16.384C210.62 16.0533 210.854 15.6747 211.025 15.248C211.196 14.8107 211.281 14.3413 211.281 13.84C211.281 13.3493 211.196 12.8907 211.025 12.464C210.854 12.0267 210.62 11.648 210.321 11.328C210.022 10.9973 209.676 10.736 209.281 10.544C208.897 10.352 208.481 10.256 208.033 10.256C207.585 10.256 207.164 10.352 206.769 10.544C206.374 10.736 206.028 10.9973 205.729 11.328C205.441 11.6587 205.206 12.048 205.025 12.496C204.854 12.9333 204.769 13.3973 204.769 13.888ZM226.238 18H225.438V13.36C225.438 12.304 225.272 11.5253 224.942 11.024C224.622 10.5227 224.126 10.272 223.454 10.272C223.112 10.272 222.787 10.336 222.478 10.464C222.168 10.592 221.886 10.7733 221.63 11.008C221.374 11.232 221.15 11.504 220.958 11.824C220.776 12.1333 220.632 12.48 220.526 12.864V18H219.726V13.36C219.726 12.2933 219.566 11.5147 219.246 11.024C218.926 10.5227 218.43 10.272 217.758 10.272C217.416 10.272 217.091 10.336 216.782 10.464C216.483 10.5813 216.206 10.7573 215.95 10.992C215.694 11.216 215.464 11.488 215.262 11.808C215.07 12.1173 214.92 12.464 214.814 12.848V18H214.014V9.68H214.766V11.664C215.107 10.992 215.555 10.4693 216.11 10.096C216.664 9.72267 217.278 9.536 217.95 9.536C218.654 9.536 219.224 9.744 219.662 10.16C220.099 10.576 220.36 11.12 220.446 11.792C221.235 10.288 222.323 9.536 223.71 9.536C224.616 9.536 225.262 9.86133 225.646 10.512C226.04 11.152 226.238 12.0533 226.238 13.216V18Z" fill="white"/>
<path d="M16.5 5.25H1.50001C0.672715 5.25 0 5.92271 0 6.75001V17.25C0 18.0773 0.672715 18.75 1.50001 18.75H16.5C17.3273 18.75 18 18.0773 18 17.25V6.75001C18 5.92271 17.3273 5.25 16.5 5.25ZM1.50001 5.99999H16.5C16.5553 5.99999 16.604 6.02013 16.6558 6.03152C15.3572 7.22005 11.0511 11.1594 9.54422 12.5171C9.42631 12.6233 9.23625 12.75 9.00004 12.75C8.76382 12.75 8.57377 12.6233 8.45546 12.5167C6.9487 11.1592 2.64238 7.2197 1.34395 6.03159C1.39591 6.0202 1.44471 5.99999 1.50001 5.99999ZM0.749988 17.25V6.75001C0.749988 6.67654 0.772137 6.60988 0.791965 6.54273C1.7859 7.45243 4.7905 10.2011 6.73871 11.9727C4.79682 13.6408 1.79146 16.4901 0.789609 17.4455C0.771926 17.3817 0.749988 17.3193 0.749988 17.25ZM16.5 18H1.50001C1.44011 18 1.38684 17.9791 1.33091 17.9658C2.36616 16.9789 5.39065 14.1131 7.2984 12.4811C7.5471 12.7067 7.77428 12.9124 7.95336 13.0737C8.26246 13.3528 8.62425 13.5 9 13.5C9.37575 13.5 9.73754 13.3528 10.0463 13.0741C10.2254 12.9127 10.4528 12.7068 10.7016 12.4811C12.6095 14.113 15.6335 16.9785 16.6691 17.9658C16.6132 17.9791 16.56 18 16.5 18ZM17.25 17.25C17.25 17.3193 17.2281 17.3817 17.2104 17.4455C16.2082 16.4896 13.2032 13.6406 11.2613 11.9728C13.2096 10.2011 16.2137 7.45271 17.208 6.54266C17.2279 6.60981 17.25 6.6765 17.25 6.74998V17.25V17.25Z" fill="#EEC48B"/>
</svg>
