<svg width="167" height="24" viewBox="0 0 167 24" fill="none" xmlns="http://www.w3.org/2000/svg">
<path d="M38.76 11.984V12.656H36.68V14.912H35.944V12.656H33.848V11.984H35.944V9.728H36.68V11.984H38.76ZM44.4988 14.224C45.2241 14.3413 45.8054 14.6667 46.2428 15.2C46.6801 15.7333 46.8988 16.3893 46.8988 17.168C46.8988 17.648 46.8081 18.08 46.6268 18.464C46.4561 18.8587 46.2108 19.1947 45.8908 19.472C45.5814 19.7493 45.2081 19.9627 44.7708 20.112C44.3334 20.272 43.8481 20.352 43.3148 20.352C42.5148 20.352 41.8108 20.1813 41.2028 19.84C40.5948 19.4987 40.1521 19.0293 39.8748 18.432L40.4668 17.952C40.6801 18.464 41.0321 18.8693 41.5228 19.168C42.0134 19.4667 42.6161 19.616 43.3307 19.616C44.1734 19.616 44.8401 19.3973 45.3308 18.96C45.8214 18.5227 46.0668 17.9147 46.0668 17.136C46.0668 16.3573 45.8108 15.7387 45.2988 15.28C44.7974 14.8213 44.0828 14.592 43.1548 14.592H42.7708V13.888H43.1868C44.0508 13.888 44.7121 13.696 45.1708 13.312C45.6294 12.9173 45.8588 12.3947 45.8588 11.744C45.8588 11.392 45.7948 11.0827 45.6668 10.816C45.5388 10.5387 45.3628 10.304 45.1388 10.112C44.9148 9.92 44.6481 9.776 44.3388 9.68C44.0294 9.57333 43.6934 9.52 43.3307 9.52C42.6908 9.52 42.1308 9.66933 41.6508 9.968C41.1708 10.256 40.8188 10.6507 40.5948 11.152L40.0508 10.704C40.1788 10.416 40.3494 10.1547 40.5628 9.92C40.7868 9.68533 41.0428 9.48267 41.3307 9.312C41.6294 9.14133 41.9494 9.01333 42.2908 8.928C42.6428 8.832 43.0108 8.784 43.3948 8.784C43.8748 8.784 44.3121 8.85333 44.7068 8.992C45.1121 9.13067 45.4588 9.328 45.7468 9.584C46.0454 9.84 46.2748 10.144 46.4348 10.496C46.6054 10.848 46.6908 11.2373 46.6908 11.664C46.6908 11.9947 46.6374 12.304 46.5308 12.592C46.4348 12.88 46.2908 13.136 46.0988 13.36C45.9068 13.584 45.6721 13.776 45.3948 13.936C45.1281 14.0853 44.8294 14.1813 44.4988 14.224ZM56.2795 14.896C56.2795 15.3867 56.1728 15.8293 55.9595 16.224C55.7462 16.6187 55.4582 16.96 55.0955 17.248C54.7435 17.5253 54.3275 17.7387 53.8475 17.888C53.3675 18.0373 52.8662 18.112 52.3435 18.112C51.7782 18.112 51.2555 18.0267 50.7755 17.856C50.3062 17.6747 49.9008 17.44 49.5595 17.152C49.2288 16.8533 48.9675 16.5067 48.7755 16.112C48.5942 15.7173 48.5035 15.296 48.5035 14.848C48.5035 14.4747 48.5728 14.128 48.7115 13.808C48.8502 13.488 49.0315 13.2053 49.2555 12.96C49.4902 12.704 49.7515 12.4907 50.0395 12.32C50.3275 12.1387 50.6208 12 50.9195 11.904C50.6422 11.808 50.3808 11.68 50.1355 11.52C49.9008 11.36 49.6875 11.1787 49.4955 10.976C49.3142 10.7733 49.1702 10.544 49.0635 10.288C48.9568 10.032 48.9035 9.76 48.9035 9.472C48.9035 9.01333 49.0048 8.608 49.2075 8.256C49.4208 7.904 49.6928 7.61067 50.0235 7.376C50.3542 7.13067 50.7275 6.94933 51.1435 6.832C51.5702 6.704 51.9915 6.64 52.4075 6.64C52.8235 6.64 53.2395 6.704 53.6555 6.832C54.0715 6.94933 54.4448 7.13067 54.7755 7.376C55.1062 7.61067 55.3728 7.904 55.5755 8.256C55.7888 8.59733 55.8955 8.99733 55.8955 9.456C55.8955 9.75467 55.8368 10.032 55.7195 10.288C55.6128 10.5333 55.4688 10.7627 55.2875 10.976C55.1062 11.1787 54.8875 11.36 54.6315 11.52C54.3862 11.68 54.1302 11.808 53.8635 11.904C54.1942 12.0213 54.5088 12.176 54.8075 12.368C55.1062 12.5493 55.3622 12.768 55.5755 13.024C55.7888 13.28 55.9595 13.568 56.0875 13.888C56.2155 14.1973 56.2795 14.5333 56.2795 14.896ZM55.4795 14.832C55.4795 14.4267 55.3835 14.064 55.1915 13.744C55.0102 13.424 54.7702 13.1573 54.4715 12.944C54.1728 12.72 53.8368 12.5493 53.4635 12.432C53.1008 12.3147 52.7382 12.256 52.3755 12.256C52.0022 12.256 51.6342 12.32 51.2715 12.448C50.9088 12.5653 50.5835 12.736 50.2955 12.96C50.0075 13.184 49.7728 13.456 49.5915 13.776C49.4102 14.096 49.3195 14.4533 49.3195 14.848C49.3195 15.2533 49.4102 15.616 49.5915 15.936C49.7835 16.2453 50.0288 16.512 50.3275 16.736C50.6262 16.9493 50.9568 17.1147 51.3195 17.232C51.6928 17.3493 52.0608 17.408 52.4235 17.408C52.7862 17.408 53.1488 17.3493 53.5115 17.232C53.8848 17.104 54.2155 16.928 54.5035 16.704C54.7915 16.48 55.0262 16.2133 55.2075 15.904C55.3888 15.584 55.4795 15.2267 55.4795 14.832ZM49.7195 9.504C49.7195 9.84533 49.7995 10.144 49.9595 10.4C50.1302 10.656 50.3435 10.8747 50.5995 11.056C50.8555 11.2373 51.1382 11.376 51.4475 11.472C51.7675 11.5573 52.0822 11.6 52.3915 11.6C52.7008 11.6 53.0155 11.552 53.3355 11.456C53.6555 11.36 53.9435 11.2213 54.1995 11.04C54.4555 10.8587 54.6635 10.64 54.8235 10.384C54.9942 10.1173 55.0795 9.81333 55.0795 9.472C55.0795 9.14133 54.9995 8.848 54.8395 8.592C54.6902 8.32533 54.4875 8.10667 54.2315 7.936C53.9862 7.75467 53.6982 7.616 53.3675 7.52C53.0475 7.424 52.7168 7.376 52.3755 7.376C52.0342 7.376 51.7035 7.424 51.3835 7.52C51.0635 7.616 50.7808 7.76 50.5355 7.952C50.2902 8.13333 50.0928 8.35733 49.9435 8.624C49.7942 8.88 49.7195 9.17333 49.7195 9.504ZM61.9548 12.48C61.9548 11.936 62.0134 11.4027 62.1308 10.88C62.2481 10.3467 62.4028 9.824 62.5948 9.312C62.7974 8.8 63.0321 8.29333 63.2988 7.792C63.5654 7.28 63.8481 6.768 64.1468 6.256L64.7708 6.576C64.5361 6.91733 64.2961 7.328 64.0508 7.808C63.8054 8.27733 63.5814 8.77867 63.3788 9.312C63.1868 9.84533 63.0268 10.3893 62.8988 10.944C62.7708 11.4987 62.7068 12.0267 62.7068 12.528C62.7068 13.36 62.8881 14.272 63.2508 15.264C63.6134 16.2453 64.1201 17.216 64.7708 18.176L64.1628 18.528C63.4801 17.5253 62.9414 16.5173 62.5468 15.504C62.1521 14.4907 61.9548 13.4827 61.9548 12.48ZM73.8953 13.312C73.8953 14.016 73.7939 14.6667 73.5913 15.264C73.3993 15.8507 73.1219 16.3627 72.7593 16.8C72.4073 17.2267 71.9859 17.5627 71.4953 17.808C71.0153 18.0427 70.4873 18.16 69.9113 18.16C69.3353 18.16 68.8019 18.0427 68.3113 17.808C67.8313 17.5627 67.4153 17.2267 67.0633 16.8C66.7113 16.3627 66.4339 15.8507 66.2313 15.264C66.0393 14.6667 65.9433 14.016 65.9433 13.312C65.9433 12.608 66.0393 11.9627 66.2313 11.376C66.4339 10.7787 66.7113 10.2667 67.0633 9.84C67.4153 9.40267 67.8313 9.06133 68.3113 8.816C68.8019 8.57067 69.3353 8.448 69.9113 8.448C70.4873 8.448 71.0153 8.57067 71.4953 8.816C71.9859 9.06133 72.4073 9.40267 72.7593 9.84C73.1219 10.2667 73.3993 10.7787 73.5913 11.376C73.7939 11.9627 73.8953 12.608 73.8953 13.312ZM73.0793 13.312C73.0793 12.704 72.9993 12.1493 72.8393 11.648C72.6899 11.136 72.4766 10.704 72.1993 10.352C71.9219 9.98933 71.5859 9.70667 71.1913 9.504C70.8073 9.30133 70.3806 9.2 69.9113 9.2C69.4419 9.2 69.0099 9.30133 68.6153 9.504C68.2313 9.70667 67.9006 9.98933 67.6233 10.352C67.3459 10.704 67.1273 11.136 66.9673 11.648C66.8179 12.1493 66.7433 12.704 66.7433 13.312C66.7433 13.92 66.8179 14.4747 66.9673 14.976C67.1273 15.4773 67.3459 15.9093 67.6233 16.272C67.9006 16.6347 68.2313 16.9173 68.6153 17.12C69.0099 17.312 69.4419 17.408 69.9113 17.408C70.3806 17.408 70.8073 17.312 71.1913 17.12C71.5859 16.9173 71.9219 16.6347 72.1993 16.272C72.4766 15.9093 72.6899 15.4773 72.8393 14.976C72.9993 14.4747 73.0793 13.92 73.0793 13.312ZM83.7085 14.272C83.7085 14.816 83.6072 15.3227 83.4045 15.792C83.2018 16.2613 82.9192 16.672 82.5565 17.024C82.1938 17.376 81.7672 17.6533 81.2765 17.856C80.7965 18.0587 80.2792 18.16 79.7245 18.16C79.1378 18.16 78.5938 18.0533 78.0925 17.84C77.6018 17.6267 77.1752 17.3227 76.8125 16.928C76.4605 16.5333 76.1832 16.0533 75.9805 15.488C75.7778 14.912 75.6765 14.2613 75.6765 13.536C75.6765 12.3413 75.7778 11.3067 75.9805 10.432C76.1832 9.55733 76.4658 8.832 76.8285 8.256C77.1912 7.68 77.6232 7.25333 78.1245 6.976C78.6365 6.69867 79.1965 6.56 79.8045 6.56C80.5725 6.56 81.2498 6.75733 81.8365 7.152C82.4338 7.54667 82.8765 8.08533 83.1645 8.768L82.6045 9.2C82.3912 8.624 82.0285 8.16 81.5165 7.808C81.0045 7.456 80.4338 7.28 79.8045 7.28C79.3032 7.28 78.8445 7.40267 78.4285 7.648C78.0232 7.88267 77.6765 8.23467 77.3885 8.704C77.1005 9.16267 76.8712 9.728 76.7005 10.4C76.5405 11.072 76.4605 11.84 76.4605 12.704C76.5778 12.3627 76.7485 12.0533 76.9725 11.776C77.1965 11.488 77.4525 11.2427 77.7405 11.04C78.0392 10.8373 78.3645 10.6827 78.7165 10.576C79.0685 10.4587 79.4365 10.4 79.8205 10.4C80.3645 10.4 80.8712 10.5013 81.3405 10.704C81.8098 10.9067 82.2205 11.184 82.5725 11.536C82.9245 11.888 83.2018 12.2987 83.4045 12.768C83.6072 13.2373 83.7085 13.7387 83.7085 14.272ZM79.7405 17.44C80.1778 17.44 80.5885 17.36 80.9725 17.2C81.3672 17.0293 81.7085 16.8 81.9965 16.512C82.2845 16.224 82.5138 15.888 82.6845 15.504C82.8552 15.12 82.9405 14.7093 82.9405 14.272C82.9405 13.8347 82.8552 13.424 82.6845 13.04C82.5138 12.656 82.2845 12.32 81.9965 12.032C81.7085 11.744 81.3672 11.5147 80.9725 11.344C80.5885 11.1733 80.1778 11.088 79.7405 11.088C79.3032 11.088 78.8872 11.1733 78.4925 11.344C78.1085 11.5147 77.7725 11.744 77.4845 12.032C77.1965 12.32 76.9672 12.656 76.7965 13.04C76.6258 13.424 76.5405 13.8347 76.5405 14.272C76.5405 14.7093 76.6258 15.12 76.7965 15.504C76.9672 15.888 77.1965 16.224 77.4845 16.512C77.7725 16.8 78.1085 17.0293 78.4925 17.2C78.8872 17.36 79.3032 17.44 79.7405 17.44ZM92.9983 14.896C92.9983 15.3867 92.8916 15.8293 92.6783 16.224C92.4649 16.6187 92.1769 16.96 91.8143 17.248C91.4623 17.5253 91.0463 17.7387 90.5663 17.888C90.0863 18.0373 89.5849 18.112 89.0623 18.112C88.4969 18.112 87.9743 18.0267 87.4943 17.856C87.0249 17.6747 86.6196 17.44 86.2783 17.152C85.9476 16.8533 85.6863 16.5067 85.4943 16.112C85.3129 15.7173 85.2223 15.296 85.2223 14.848C85.2223 14.4747 85.2916 14.128 85.4303 13.808C85.5689 13.488 85.7503 13.2053 85.9743 12.96C86.2089 12.704 86.4703 12.4907 86.7582 12.32C87.0463 12.1387 87.3396 12 87.6383 11.904C87.3609 11.808 87.0996 11.68 86.8543 11.52C86.6196 11.36 86.4063 11.1787 86.2143 10.976C86.0329 10.7733 85.8889 10.544 85.7823 10.288C85.6756 10.032 85.6223 9.76 85.6223 9.472C85.6223 9.01333 85.7236 8.608 85.9263 8.256C86.1396 7.904 86.4116 7.61067 86.7423 7.376C87.0729 7.13067 87.4463 6.94933 87.8623 6.832C88.2889 6.704 88.7103 6.64 89.1263 6.64C89.5423 6.64 89.9583 6.704 90.3743 6.832C90.7903 6.94933 91.1636 7.13067 91.4943 7.376C91.8249 7.61067 92.0916 7.904 92.2943 8.256C92.5076 8.59733 92.6143 8.99733 92.6143 9.456C92.6143 9.75467 92.5556 10.032 92.4383 10.288C92.3316 10.5333 92.1876 10.7627 92.0063 10.976C91.8249 11.1787 91.6063 11.36 91.3503 11.52C91.1049 11.68 90.8489 11.808 90.5823 11.904C90.9129 12.0213 91.2276 12.176 91.5263 12.368C91.8249 12.5493 92.0809 12.768 92.2943 13.024C92.5076 13.28 92.6783 13.568 92.8063 13.888C92.9343 14.1973 92.9983 14.5333 92.9983 14.896ZM92.1983 14.832C92.1983 14.4267 92.1023 14.064 91.9103 13.744C91.7289 13.424 91.4889 13.1573 91.1903 12.944C90.8916 12.72 90.5556 12.5493 90.1823 12.432C89.8196 12.3147 89.4569 12.256 89.0943 12.256C88.7209 12.256 88.3529 12.32 87.9903 12.448C87.6276 12.5653 87.3023 12.736 87.0143 12.96C86.7263 13.184 86.4916 13.456 86.3103 13.776C86.1289 14.096 86.0383 14.4533 86.0383 14.848C86.0383 15.2533 86.1289 15.616 86.3103 15.936C86.5023 16.2453 86.7476 16.512 87.0463 16.736C87.3449 16.9493 87.6756 17.1147 88.0383 17.232C88.4116 17.3493 88.7796 17.408 89.1423 17.408C89.5049 17.408 89.8676 17.3493 90.2303 17.232C90.6036 17.104 90.9343 16.928 91.2223 16.704C91.5103 16.48 91.7449 16.2133 91.9263 15.904C92.1076 15.584 92.1983 15.2267 92.1983 14.832ZM86.4383 9.504C86.4383 9.84533 86.5183 10.144 86.6783 10.4C86.8489 10.656 87.0623 10.8747 87.3183 11.056C87.5743 11.2373 87.8569 11.376 88.1663 11.472C88.4863 11.5573 88.8009 11.6 89.1102 11.6C89.4196 11.6 89.7343 11.552 90.0543 11.456C90.3743 11.36 90.6623 11.2213 90.9183 11.04C91.1743 10.8587 91.3823 10.64 91.5423 10.384C91.7129 10.1173 91.7983 9.81333 91.7983 9.472C91.7983 9.14133 91.7183 8.848 91.5583 8.592C91.4089 8.32533 91.2063 8.10667 90.9503 7.936C90.7049 7.75467 90.4169 7.616 90.0863 7.52C89.7663 7.424 89.4356 7.376 89.0943 7.376C88.7529 7.376 88.4223 7.424 88.1023 7.52C87.7823 7.616 87.4996 7.76 87.2543 7.952C87.0089 8.13333 86.8116 8.35733 86.6623 8.624C86.5129 8.88 86.4383 9.17333 86.4383 9.504ZM97.1721 12.48C97.1721 13.4827 96.9748 14.4907 96.5801 15.504C96.1961 16.5173 95.6628 17.5253 94.9801 18.528L94.3721 18.176C95.0121 17.216 95.5135 16.2453 95.8761 15.264C96.2388 14.272 96.4201 13.36 96.4201 12.528C96.4201 12.0267 96.3561 11.4987 96.2281 10.944C96.1001 10.3893 95.9348 9.84533 95.7321 9.312C95.5295 8.77867 95.3055 8.27733 95.0601 7.808C94.8255 7.328 94.5908 6.91733 94.3561 6.576L94.9801 6.256C95.2788 6.768 95.5615 7.28 95.8281 7.792C96.0948 8.29333 96.3295 8.8 96.5321 9.312C96.7348 9.824 96.8895 10.3467 96.9961 10.88C97.1135 11.4027 97.1721 11.936 97.1721 12.48ZM109.04 9.424H102.656V8.672H110.32L104.544 20.032H103.632L109.04 9.424ZM116.77 17.264V18H111.666V17.264H113.938V9.872C113.842 10 113.693 10.1387 113.49 10.288C113.287 10.4373 113.058 10.5813 112.802 10.72C112.546 10.848 112.285 10.96 112.018 11.056C111.751 11.1413 111.511 11.184 111.298 11.184V10.384C111.565 10.384 111.847 10.3147 112.146 10.176C112.445 10.0267 112.722 9.86133 112.978 9.68C113.245 9.49867 113.463 9.328 113.634 9.168C113.815 8.99733 113.917 8.896 113.938 8.864H114.738V17.264H116.77ZM125.973 13.312C125.973 14.016 125.872 14.6667 125.669 15.264C125.477 15.8507 125.2 16.3627 124.837 16.8C124.485 17.2267 124.064 17.5627 123.573 17.808C123.093 18.0427 122.565 18.16 121.989 18.16C121.413 18.16 120.88 18.0427 120.389 17.808C119.909 17.5627 119.493 17.2267 119.141 16.8C118.789 16.3627 118.512 15.8507 118.309 15.264C118.117 14.6667 118.021 14.016 118.021 13.312C118.021 12.608 118.117 11.9627 118.309 11.376C118.512 10.7787 118.789 10.2667 119.141 9.84C119.493 9.40267 119.909 9.06133 120.389 8.816C120.88 8.57067 121.413 8.448 121.989 8.448C122.565 8.448 123.093 8.57067 123.573 8.816C124.064 9.06133 124.485 9.40267 124.837 9.84C125.2 10.2667 125.477 10.7787 125.669 11.376C125.872 11.9627 125.973 12.608 125.973 13.312ZM125.157 13.312C125.157 12.704 125.077 12.1493 124.917 11.648C124.768 11.136 124.555 10.704 124.277 10.352C124 9.98933 123.664 9.70667 123.269 9.504C122.885 9.30133 122.459 9.2 121.989 9.2C121.52 9.2 121.088 9.30133 120.693 9.504C120.309 9.70667 119.979 9.98933 119.701 10.352C119.424 10.704 119.205 11.136 119.045 11.648C118.896 12.1493 118.821 12.704 118.821 13.312C118.821 13.92 118.896 14.4747 119.045 14.976C119.205 15.4773 119.424 15.9093 119.701 16.272C119.979 16.6347 120.309 16.9173 120.693 17.12C121.088 17.312 121.52 17.408 121.989 17.408C122.459 17.408 122.885 17.312 123.269 17.12C123.664 16.9173 124 16.6347 124.277 16.272C124.555 15.9093 124.768 15.4773 124.917 14.976C125.077 14.4747 125.157 13.92 125.157 13.312ZM137.192 17.264V18H132.088V17.264H134.36V9.872C134.264 10 134.115 10.1387 133.912 10.288C133.709 10.4373 133.48 10.5813 133.224 10.72C132.968 10.848 132.707 10.96 132.44 11.056C132.173 11.1413 131.933 11.184 131.72 11.184V10.384C131.987 10.384 132.269 10.3147 132.568 10.176C132.867 10.0267 133.144 9.86133 133.4 9.68C133.667 9.49867 133.885 9.328 134.056 9.168C134.237 8.99733 134.339 8.896 134.36 8.864H135.16V17.264H137.192ZM143.723 17.264V18H138.619V17.264H140.891V9.872C140.795 10 140.646 10.1387 140.443 10.288C140.241 10.4373 140.011 10.5813 139.755 10.72C139.499 10.848 139.238 10.96 138.971 11.056C138.705 11.1413 138.465 11.184 138.251 11.184V10.384C138.518 10.384 138.801 10.3147 139.099 10.176C139.398 10.0267 139.675 9.86133 139.931 9.68C140.198 9.49867 140.417 9.328 140.587 9.168C140.769 8.99733 140.87 8.896 140.891 8.864H141.691V17.264H143.723ZM148.764 12.752C148.764 12.208 148.865 11.7013 149.068 11.232C149.271 10.7627 149.553 10.352 149.916 10C150.279 9.648 150.7 9.37067 151.18 9.168C151.66 8.96533 152.183 8.864 152.748 8.864C153.335 8.864 153.873 8.97067 154.364 9.184C154.855 9.39733 155.281 9.70133 155.644 10.096C156.007 10.4907 156.289 10.976 156.492 11.552C156.695 12.128 156.796 12.7733 156.796 13.488C156.796 14.6827 156.695 15.7173 156.492 16.592C156.289 17.4667 156.007 18.192 155.644 18.768C155.281 19.344 154.844 19.7707 154.332 20.048C153.831 20.3253 153.276 20.464 152.668 20.464C151.9 20.464 151.217 20.2667 150.62 19.872C150.033 19.4773 149.596 18.9387 149.308 18.256L149.868 17.824C150.081 18.4 150.444 18.864 150.956 19.216C151.468 19.568 152.039 19.744 152.668 19.744C153.169 19.744 153.623 19.6213 154.028 19.376C154.444 19.1413 154.796 18.7893 155.084 18.32C155.372 17.8613 155.596 17.296 155.756 16.624C155.927 15.952 156.012 15.184 156.012 14.32C155.895 14.6613 155.724 14.976 155.5 15.264C155.276 15.5413 155.015 15.7813 154.716 15.984C154.428 16.1867 154.108 16.3467 153.756 16.464C153.404 16.5707 153.036 16.624 152.652 16.624C152.108 16.624 151.601 16.5227 151.132 16.32C150.663 16.1173 150.252 15.84 149.9 15.488C149.548 15.136 149.271 14.7253 149.068 14.256C148.865 13.7867 148.764 13.2853 148.764 12.752ZM152.732 9.584C152.295 9.584 151.879 9.66933 151.484 9.84C151.1 10 150.764 10.224 150.476 10.512C150.188 10.8 149.959 11.136 149.788 11.52C149.617 11.904 149.532 12.3147 149.532 12.752C149.532 13.1893 149.617 13.6 149.788 13.984C149.959 14.368 150.188 14.704 150.476 14.992C150.764 15.28 151.1 15.5093 151.484 15.68C151.879 15.8507 152.295 15.936 152.732 15.936C153.169 15.936 153.58 15.8507 153.964 15.68C154.359 15.5093 154.7 15.28 154.988 14.992C155.276 14.704 155.505 14.368 155.676 13.984C155.847 13.6 155.932 13.1893 155.932 12.752C155.932 12.3253 155.847 11.92 155.676 11.536C155.505 11.152 155.276 10.816 154.988 10.528C154.7 10.24 154.359 10.0107 153.964 9.84C153.58 9.66933 153.169 9.584 152.732 9.584ZM161.884 13.04C162.396 13.04 162.876 13.1307 163.324 13.312C163.772 13.4827 164.161 13.728 164.492 14.048C164.833 14.368 165.1 14.752 165.292 15.2C165.484 15.6373 165.58 16.1227 165.58 16.656C165.58 17.2213 165.473 17.728 165.26 18.176C165.057 18.6347 164.78 19.0293 164.428 19.36C164.076 19.6907 163.665 19.9413 163.196 20.112C162.727 20.2933 162.231 20.384 161.708 20.384C160.897 20.384 160.167 20.176 159.516 19.76C158.876 19.3547 158.396 18.816 158.076 18.144L158.668 17.808C158.956 18.3627 159.372 18.8053 159.916 19.136C160.46 19.4773 161.057 19.648 161.708 19.648C162.135 19.648 162.535 19.5733 162.908 19.424C163.281 19.2853 163.601 19.0827 163.868 18.816C164.145 18.5493 164.364 18.2347 164.524 17.872C164.684 17.5093 164.764 17.104 164.764 16.656C164.764 16.2293 164.684 15.84 164.524 15.488C164.375 15.136 164.167 14.832 163.9 14.576C163.633 14.32 163.319 14.1227 162.956 13.984C162.604 13.8453 162.22 13.776 161.804 13.776C161.26 13.776 160.748 13.8987 160.268 14.144C159.788 14.3787 159.393 14.72 159.084 15.168H158.316C158.327 15.0933 158.353 14.944 158.396 14.72C158.449 14.496 158.503 14.2293 158.556 13.92C158.62 13.6107 158.689 13.2693 158.764 12.896C158.839 12.5227 158.913 12.1493 158.988 11.776C159.169 10.9013 159.367 9.93067 159.58 8.864H165.02V9.616H160.188L159.292 14.112C159.612 13.7707 159.996 13.5093 160.444 13.328C160.892 13.136 161.372 13.04 161.884 13.04Z" fill="white"/>
<g clip-path="url(#clip0_2012_708)">
<path d="M12.7493 20.9922C12.8304 20.9959 12.9079 20.9995 12.9891 20.9995C13.8563 20.9995 14.5796 20.6859 15.148 20.0696C15.1516 20.0659 15.159 20.0585 15.1627 20.0548C15.3657 19.8113 15.5945 19.5899 15.838 19.3574C16.0041 19.1987 16.1739 19.0363 16.3325 18.8666C17.089 18.0768 17.0854 17.0768 16.3252 16.3166L14.2217 14.2131C13.86 13.8367 13.4283 13.6374 12.9707 13.6374C12.5168 13.6374 12.0813 13.833 11.7086 14.2057L10.465 15.4493C10.3543 15.3866 10.2399 15.3313 10.1292 15.2759C9.98892 15.2058 9.85976 15.1394 9.74536 15.0692C8.60506 14.3459 7.57178 13.4012 6.58278 12.1871C6.08459 11.5598 5.75615 11.0357 5.52366 10.497C5.84841 10.2017 6.15102 9.89545 6.44255 9.59653C6.54957 9.48952 6.65659 9.37881 6.76729 9.2681C7.55702 8.47837 7.55702 7.50045 6.76729 6.71441L5.72294 5.67006C5.60116 5.54828 5.48307 5.4265 5.36498 5.30841C5.13249 5.07223 4.89262 4.82498 4.65275 4.60356C4.29111 4.24192 3.86303 4.05371 3.40913 4.05371C2.95891 4.05371 2.52346 4.24192 2.14704 4.60356L0.836991 5.90993C0.357252 6.38967 0.0841704 6.97273 0.0251257 7.64806C-0.0412996 8.48945 0.113693 9.3825 0.512245 10.4601C1.12852 12.1244 2.05479 13.6706 3.42758 15.3239C5.09928 17.3166 7.1068 18.8924 9.40216 20.0032C10.2768 20.4202 11.4466 20.9073 12.7493 20.9922ZM4.12504 14.7445C2.81868 13.1724 1.94408 11.7111 1.3647 10.1464C1.00674 9.18322 0.873893 8.43409 0.929248 7.72186C0.969841 7.26058 1.14698 6.87679 1.4791 6.54835L2.78178 5.24568C2.98105 5.05378 3.19878 4.95414 3.41282 4.95414C3.62316 4.95414 3.82982 5.05378 4.0291 5.24937C4.26158 5.46709 4.48669 5.69589 4.72287 5.93576C4.84096 6.05754 4.96274 6.18301 5.08821 6.30479L6.13256 7.34914C6.56064 7.77722 6.56064 8.19791 6.13256 8.62599C6.02185 8.73669 5.91115 8.8474 5.80413 8.95811C5.47938 9.28655 5.17678 9.59653 4.84096 9.89545C4.83358 9.90283 4.82989 9.90652 4.82251 9.9139C4.52359 10.2128 4.56788 10.5007 4.64168 10.7147C4.64537 10.7258 4.64906 10.7331 4.65275 10.7442C4.92215 11.3937 5.30225 12.01 5.88531 12.748C6.93705 14.0433 8.04414 15.0508 9.26931 15.8294C9.42062 15.9254 9.5793 16.0066 9.73429 16.0841C9.87452 16.1542 10.0037 16.2206 10.1181 16.2907C10.1328 16.2981 10.1439 16.3055 10.1587 16.3129C10.2768 16.3719 10.3912 16.4014 10.5093 16.4014C10.8008 16.4014 10.9853 16.2169 11.0443 16.1542L12.3544 14.8441C12.5537 14.6449 12.7677 14.5415 12.9781 14.5415C13.2364 14.5415 13.4467 14.7039 13.5833 14.8441L15.6941 16.955C16.2108 17.4716 15.9746 17.9366 15.683 18.2429C15.5354 18.4016 15.3804 18.5492 15.2181 18.7079C14.9708 18.944 14.7162 19.1913 14.4837 19.4681C14.0851 19.8961 13.6128 20.0954 12.9965 20.0954C12.9375 20.0954 12.8747 20.0917 12.8157 20.088C11.668 20.0142 10.6052 19.5677 9.80441 19.1876C7.61975 18.1359 5.71187 16.6413 4.12504 14.7445Z" fill="#EEC48B"/>
<path d="M9.89265 6.29419C9.6454 6.2536 9.41291 6.41966 9.37232 6.66322C9.33173 6.91047 9.49779 7.14296 9.74135 7.18356C10.7562 7.357 11.6788 7.83674 12.4168 8.57111C13.1512 9.30547 13.6309 10.2317 13.8044 11.2466C13.8413 11.468 14.0332 11.623 14.2509 11.623C14.2767 11.623 14.3026 11.6193 14.3284 11.6156C14.5756 11.575 14.7417 11.3388 14.6974 11.0953C14.4944 9.89592 13.9261 8.7999 13.0589 7.93269C12.1843 7.06178 11.092 6.49716 9.89265 6.29419Z" fill="#EEC48B"/>
<path d="M17.5353 11.468C17.5611 11.468 17.587 11.4643 17.6128 11.4606C17.8601 11.42 18.0261 11.1838 17.9818 10.9402C17.646 8.95486 16.7087 7.15031 15.2732 5.71479C13.8339 4.27926 12.0294 3.34193 10.044 3.00611C9.79677 2.96552 9.56428 3.13158 9.52369 3.37514C9.48309 3.62239 9.64916 3.85488 9.89272 3.89547C11.6899 4.20176 13.3284 5.05053 14.631 6.35321C15.9337 7.65588 16.7825 9.29437 17.0888 11.0915C17.1257 11.313 17.3176 11.468 17.5353 11.468Z" fill="#EEC48B"/>
</g>
<defs>
<clipPath id="clip0_2012_708">
<rect width="18" height="18" fill="white" transform="translate(0 3)"/>
</clipPath>
</defs>
</svg>
