<svg width="191" height="15" viewBox="0 0 191 15" fill="none" xmlns="http://www.w3.org/2000/svg">
<path opacity="0.7" d="M5.49805 3.53516C4.85091 3.53516 4.34277 3.75163 3.97363 4.18457C3.60905 4.61296 3.42676 5.21452 3.42676 5.98926C3.42676 6.83691 3.59538 7.46354 3.93262 7.86914C4.27441 8.27474 4.77799 8.47754 5.44336 8.47754C5.82617 8.47754 6.27734 8.37956 6.79688 8.18359V8.78516C6.33203 8.99023 5.85807 9.09277 5.375 9.09277C4.52279 9.09277 3.86426 8.83073 3.39941 8.30664C2.93913 7.78255 2.70898 7.02832 2.70898 6.04395C2.70898 5.09603 2.96191 4.33952 3.46777 3.77441C3.97363 3.20475 4.65039 2.91992 5.49805 2.91992C6.04036 2.91992 6.55762 3.03841 7.0498 3.27539L6.79688 3.84277C6.35026 3.6377 5.91732 3.53516 5.49805 3.53516ZM0.0498047 6.00293C0.0498047 5.09147 0.277669 4.23698 0.733398 3.43945C1.18913 2.64193 1.81576 2.01302 2.61328 1.55273C3.41081 1.09245 4.26986 0.862305 5.19043 0.862305C6.10189 0.862305 6.95638 1.09017 7.75391 1.5459C8.55143 2.00163 9.18034 2.62826 9.64062 3.42578C10.1009 4.22331 10.3311 5.08236 10.3311 6.00293C10.3311 6.90072 10.11 7.74382 9.66797 8.53223C9.22591 9.32064 8.60612 9.95182 7.80859 10.4258C7.01107 10.8997 6.13835 11.1367 5.19043 11.1367C4.24707 11.1367 3.37663 10.902 2.5791 10.4326C1.78158 9.95866 1.15951 9.32747 0.712891 8.53906C0.270833 7.75065 0.0498047 6.90527 0.0498047 6.00293ZM0.685547 6.00293C0.685547 6.81413 0.886068 7.56608 1.28711 8.25879C1.69271 8.94694 2.24186 9.49382 2.93457 9.89941C3.62728 10.305 4.37923 10.5078 5.19043 10.5078C6.00163 10.5078 6.7513 10.3073 7.43945 9.90625C8.13216 9.50065 8.68132 8.9515 9.08691 8.25879C9.49251 7.56608 9.69531 6.81413 9.69531 6.00293C9.69531 5.20996 9.49935 4.4694 9.10742 3.78125C8.72005 3.0931 8.17546 2.53939 7.47363 2.12012C6.77637 1.70085 6.0153 1.49121 5.19043 1.49121C4.38835 1.49121 3.63867 1.69401 2.94141 2.09961C2.2487 2.50065 1.69954 3.05208 1.29395 3.75391C0.888346 4.45573 0.685547 5.2054 0.685547 6.00293ZM18.042 11H11.7871V10.3984L14.4463 7.62305C15.1937 6.84831 15.7178 6.25586 16.0186 5.8457C16.3193 5.43555 16.5404 5.04362 16.6816 4.66992C16.8229 4.29622 16.8936 3.9043 16.8936 3.49414C16.8936 2.89714 16.6976 2.41178 16.3057 2.03809C15.9137 1.66439 15.4056 1.47754 14.7812 1.47754C13.9473 1.47754 13.1497 1.7806 12.3887 2.38672L12.0195 1.91504C12.8535 1.21322 13.7786 0.862305 14.7949 0.862305C15.6654 0.862305 16.349 1.09473 16.8457 1.55957C17.347 2.02441 17.5977 2.66471 17.5977 3.48047C17.5977 4.14128 17.429 4.78158 17.0918 5.40137C16.7591 6.0166 16.1484 6.77767 15.2598 7.68457L12.6963 10.3164V10.3438H18.042V11ZM26.2246 5.97559C26.2246 7.73014 25.9557 9.02897 25.418 9.87207C24.8848 10.7152 24.0758 11.1367 22.9912 11.1367C21.9476 11.1367 21.1546 10.7038 20.6123 9.83789C20.07 8.96745 19.7988 7.68001 19.7988 5.97559C19.7988 4.2347 20.0609 2.94499 20.585 2.10645C21.1136 1.2679 21.9157 0.848633 22.9912 0.848633C24.0439 0.848633 24.846 1.28385 25.3975 2.1543C25.9489 3.02018 26.2246 4.29395 26.2246 5.97559ZM20.5371 5.97559C20.5371 7.52507 20.7399 8.67122 21.1455 9.41406C21.5511 10.1523 22.1663 10.5215 22.9912 10.5215C23.8525 10.5215 24.4792 10.1387 24.8711 9.37305C25.2676 8.60742 25.4658 7.47493 25.4658 5.97559C25.4658 4.49902 25.2676 3.37793 24.8711 2.6123C24.4792 1.84668 23.8525 1.46387 22.9912 1.46387C22.1299 1.46387 21.5055 1.84668 21.1182 2.6123C20.7308 3.37793 20.5371 4.49902 20.5371 5.97559ZM34.0381 11H27.7832V10.3984L30.4424 7.62305C31.1898 6.84831 31.7139 6.25586 32.0146 5.8457C32.3154 5.43555 32.5365 5.04362 32.6777 4.66992C32.819 4.29622 32.8896 3.9043 32.8896 3.49414C32.8896 2.89714 32.6937 2.41178 32.3018 2.03809C31.9098 1.66439 31.4017 1.47754 30.7773 1.47754C29.9434 1.47754 29.1458 1.7806 28.3848 2.38672L28.0156 1.91504C28.8496 1.21322 29.7747 0.862305 30.791 0.862305C31.6615 0.862305 32.3451 1.09473 32.8418 1.55957C33.3431 2.02441 33.5938 2.66471 33.5938 3.48047C33.5938 4.14128 33.4251 4.78158 33.0879 5.40137C32.7552 6.0166 32.1445 6.77767 31.2559 7.68457L28.6924 10.3164V10.3438H34.0381V11ZM39.6709 11H39.001V3.71973C39.001 3.05892 39.0283 2.37305 39.083 1.66211C39.0146 1.73047 38.944 1.79655 38.8711 1.86035C38.7982 1.92415 38.0941 2.47786 36.7588 3.52148L36.3691 3.03613L39.083 1.00586H39.6709V11ZM44.1143 10.4668C44.1143 10.0202 44.2965 9.79688 44.6611 9.79688C45.0348 9.79688 45.2217 10.0202 45.2217 10.4668C45.2217 10.9134 45.0348 11.1367 44.6611 11.1367C44.2965 11.1367 44.1143 10.9134 44.1143 10.4668ZM56.9248 5.36035C56.9248 5.82975 56.8086 6.19889 56.5762 6.46777C56.3438 6.7321 55.9655 6.91667 55.4414 7.02148V7.06934C56.0384 7.1377 56.4691 7.31087 56.7334 7.58887C57.0023 7.8623 57.1367 8.25651 57.1367 8.77148C57.1367 9.48698 56.8997 10.0384 56.4258 10.4258C55.9564 10.8086 55.2682 11 54.3613 11H51.2236V3.56934H54.375C55.2227 3.56934 55.8584 3.72201 56.2822 4.02734C56.7106 4.33268 56.9248 4.77702 56.9248 5.36035ZM56.4189 8.75781C56.4189 7.84635 55.7194 7.39062 54.3203 7.39062H51.9004V10.3574H54.416C55.7513 10.3574 56.4189 9.82422 56.4189 8.75781ZM56.207 5.41504C56.207 4.9821 56.0521 4.67448 55.7422 4.49219C55.4323 4.30534 54.9674 4.21191 54.3477 4.21191H51.9004V6.75488H54.2656C54.9583 6.75488 55.4551 6.64779 55.7559 6.43359C56.0566 6.2194 56.207 5.87988 56.207 5.41504ZM62.1201 11.1367C61.0583 11.1367 60.2266 10.8018 59.625 10.1318C59.0234 9.46191 58.7227 8.52767 58.7227 7.3291C58.7227 6.09863 59.0348 5.1416 59.6592 4.45801C60.2835 3.76986 61.138 3.42578 62.2227 3.42578C62.8652 3.42578 63.4805 3.53743 64.0684 3.76074L63.8838 4.3623C63.2412 4.14811 62.6829 4.04102 62.209 4.04102C61.2975 4.04102 60.6071 4.32357 60.1377 4.88867C59.6683 5.44922 59.4336 6.25814 59.4336 7.31543C59.4336 8.31803 59.6683 9.10417 60.1377 9.67383C60.6071 10.2389 61.2633 10.5215 62.1064 10.5215C62.7809 10.5215 63.4076 10.4007 63.9863 10.1592V10.7881C63.5124 11.0205 62.8903 11.1367 62.1201 11.1367ZM68.8125 11.1367C67.7324 11.1367 66.8893 10.804 66.2832 10.1387C65.6816 9.47331 65.3809 8.54134 65.3809 7.34277C65.3809 6.15788 65.6725 5.20996 66.2559 4.49902C66.8392 3.78353 67.6253 3.42578 68.6143 3.42578C69.4893 3.42578 70.1797 3.73112 70.6855 4.3418C71.1914 4.95247 71.4443 5.7819 71.4443 6.83008V7.37695H66.0918C66.1009 8.39779 66.3379 9.17708 66.8027 9.71484C67.2721 10.2526 67.9421 10.5215 68.8125 10.5215C69.2363 10.5215 69.6077 10.4919 69.9268 10.4326C70.2503 10.3734 70.6582 10.2458 71.1504 10.0498V10.665C70.7311 10.8473 70.3438 10.9704 69.9883 11.0342C69.6328 11.1025 69.2409 11.1367 68.8125 11.1367ZM68.6143 4.02734C67.8988 4.02734 67.3245 4.26432 66.8916 4.73828C66.4587 5.20768 66.2057 5.88672 66.1328 6.77539H70.7266C70.7266 5.91406 70.5397 5.24186 70.166 4.75879C69.7923 4.27116 69.2751 4.02734 68.6143 4.02734ZM77.8086 11H77.1318V3.56934H83.0586V11H82.3818V4.21191H77.8086V11ZM88.7324 11.1367C87.5885 11.1367 86.7546 10.7083 86.2305 9.85156H86.1826L86.2031 10.4258C86.2214 10.763 86.2305 11.1322 86.2305 11.5332V14.3633H85.5537V3.56934H86.1279L86.2578 4.62891H86.2988C86.8092 3.82682 87.625 3.42578 88.7461 3.42578C89.7487 3.42578 90.512 3.75618 91.0361 4.41699C91.5648 5.07324 91.8291 6.03027 91.8291 7.28809C91.8291 8.50944 91.5511 9.45736 90.9951 10.1318C90.4437 10.8018 89.6895 11.1367 88.7324 11.1367ZM88.7188 10.5352C89.4798 10.5352 90.0677 10.2526 90.4824 9.6875C90.9017 9.1224 91.1113 8.33171 91.1113 7.31543C91.1113 5.13249 90.3229 4.04102 88.7461 4.04102C87.8802 4.04102 87.2445 4.28027 86.8389 4.75879C86.4333 5.23275 86.2305 6.00749 86.2305 7.08301V7.30176C86.2305 8.46387 86.4242 9.29329 86.8115 9.79004C87.2035 10.2868 87.8392 10.5352 88.7188 10.5352ZM98.4053 11L98.2344 9.82422H98.1797C97.806 10.3027 97.4209 10.6423 97.0244 10.8428C96.6325 11.0387 96.1676 11.1367 95.6299 11.1367C94.9007 11.1367 94.3333 10.9499 93.9277 10.5762C93.5221 10.2025 93.3193 9.68522 93.3193 9.02441C93.3193 8.2998 93.6201 7.73698 94.2217 7.33594C94.8278 6.9349 95.7028 6.72298 96.8467 6.7002L98.2617 6.65918V6.16699C98.2617 5.46061 98.1182 4.92741 97.8311 4.56738C97.5439 4.20736 97.0814 4.02734 96.4434 4.02734C95.7552 4.02734 95.042 4.21875 94.3037 4.60156L94.0508 4.01367C94.8665 3.63086 95.6732 3.43945 96.4707 3.43945C97.2865 3.43945 97.8949 3.65137 98.2959 4.0752C98.7015 4.49902 98.9043 5.15983 98.9043 6.05762V11H98.4053ZM95.6709 10.5215C96.4639 10.5215 97.0882 10.2959 97.5439 9.84473C98.0042 9.389 98.2344 8.75781 98.2344 7.95117V7.21973L96.9355 7.27441C95.8919 7.32454 95.1468 7.48861 94.7002 7.7666C94.2581 8.04004 94.0371 8.46842 94.0371 9.05176C94.0371 9.5166 94.1784 9.87891 94.4609 10.1387C94.748 10.3939 95.1514 10.5215 95.6709 10.5215ZM107.019 5.36035C107.019 5.82975 106.902 6.19889 106.67 6.46777C106.438 6.7321 106.059 6.91667 105.535 7.02148V7.06934C106.132 7.1377 106.563 7.31087 106.827 7.58887C107.096 7.8623 107.23 8.25651 107.23 8.77148C107.23 9.48698 106.993 10.0384 106.52 10.4258C106.05 10.8086 105.362 11 104.455 11H101.317V3.56934H104.469C105.316 3.56934 105.952 3.72201 106.376 4.02734C106.804 4.33268 107.019 4.77702 107.019 5.36035ZM106.513 8.75781C106.513 7.84635 105.813 7.39062 104.414 7.39062H101.994V10.3574H104.51C105.845 10.3574 106.513 9.82422 106.513 8.75781ZM106.301 5.41504C106.301 4.9821 106.146 4.67448 105.836 4.49219C105.526 4.30534 105.061 4.21191 104.441 4.21191H101.994V6.75488H104.359C105.052 6.75488 105.549 6.64779 105.85 6.43359C106.15 6.2194 106.301 5.87988 106.301 5.41504ZM113.759 11L113.588 9.82422H113.533C113.16 10.3027 112.774 10.6423 112.378 10.8428C111.986 11.0387 111.521 11.1367 110.983 11.1367C110.254 11.1367 109.687 10.9499 109.281 10.5762C108.876 10.2025 108.673 9.68522 108.673 9.02441C108.673 8.2998 108.974 7.73698 109.575 7.33594C110.181 6.9349 111.056 6.72298 112.2 6.7002L113.615 6.65918V6.16699C113.615 5.46061 113.472 4.92741 113.185 4.56738C112.897 4.20736 112.435 4.02734 111.797 4.02734C111.109 4.02734 110.396 4.21875 109.657 4.60156L109.404 4.01367C110.22 3.63086 111.027 3.43945 111.824 3.43945C112.64 3.43945 113.248 3.65137 113.649 4.0752C114.055 4.49902 114.258 5.15983 114.258 6.05762V11H113.759ZM111.024 10.5215C111.817 10.5215 112.442 10.2959 112.897 9.84473C113.358 9.389 113.588 8.75781 113.588 7.95117V7.21973L112.289 7.27441C111.245 7.32454 110.5 7.48861 110.054 7.7666C109.612 8.04004 109.391 8.46842 109.391 9.05176C109.391 9.5166 109.532 9.87891 109.814 10.1387C110.102 10.3939 110.505 10.5215 111.024 10.5215ZM121.709 6.77539C123.053 6.77539 123.726 6.31283 123.726 5.3877C123.726 4.94564 123.571 4.6084 123.261 4.37598C122.951 4.14355 122.509 4.02734 121.935 4.02734C121.57 4.02734 121.23 4.07064 120.916 4.15723C120.602 4.23926 120.264 4.36003 119.904 4.51953L119.651 3.95898C120.444 3.60352 121.215 3.42578 121.962 3.42578C122.773 3.42578 123.388 3.5944 123.808 3.93164C124.227 4.26888 124.437 4.736 124.437 5.33301C124.437 6.19434 123.994 6.74349 123.11 6.98047V7.02148C123.662 7.1582 124.063 7.38607 124.313 7.70508C124.564 8.01953 124.689 8.42285 124.689 8.91504C124.689 9.60319 124.437 10.1455 123.931 10.542C123.429 10.9385 122.732 11.1367 121.839 11.1367C121.356 11.1367 120.914 11.0911 120.513 11C120.116 10.9043 119.788 10.779 119.528 10.624V9.94727C119.998 10.1706 120.403 10.3232 120.745 10.4053C121.087 10.4827 121.451 10.5215 121.839 10.5215C122.513 10.5215 123.037 10.3802 123.411 10.0977C123.789 9.81055 123.979 9.40267 123.979 8.87402C123.979 8.35905 123.799 7.97852 123.438 7.73242C123.078 7.48633 122.538 7.36328 121.818 7.36328H120.786V6.77539H121.709ZM131.149 11L130.979 9.82422H130.924C130.55 10.3027 130.165 10.6423 129.769 10.8428C129.377 11.0387 128.912 11.1367 128.374 11.1367C127.645 11.1367 127.077 10.9499 126.672 10.5762C126.266 10.2025 126.063 9.68522 126.063 9.02441C126.063 8.2998 126.364 7.73698 126.966 7.33594C127.572 6.9349 128.447 6.72298 129.591 6.7002L131.006 6.65918V6.16699C131.006 5.46061 130.862 4.92741 130.575 4.56738C130.288 4.20736 129.826 4.02734 129.188 4.02734C128.499 4.02734 127.786 4.21875 127.048 4.60156L126.795 4.01367C127.611 3.63086 128.417 3.43945 129.215 3.43945C130.031 3.43945 130.639 3.65137 131.04 4.0752C131.446 4.49902 131.648 5.15983 131.648 6.05762V11H131.149ZM128.415 10.5215C129.208 10.5215 129.832 10.2959 130.288 9.84473C130.748 9.389 130.979 8.75781 130.979 7.95117V7.21973L129.68 7.27441C128.636 7.32454 127.891 7.48861 127.444 7.7666C127.002 8.04004 126.781 8.46842 126.781 9.05176C126.781 9.5166 126.923 9.87891 127.205 10.1387C127.492 10.3939 127.896 10.5215 128.415 10.5215ZM139.12 10.3574H142.825V3.56934H143.502V10.3574H144.493V13.5225H143.823V11H134.062V3.56934H134.738V10.3574H138.443V3.56934H139.12V10.3574ZM146.722 3.56934V8.94238L146.681 10.3438L151.09 3.56934H151.992V11H151.343V5.66113L151.37 4.22559L146.961 11H146.079V3.56934H146.722ZM159.546 10.3574H163.251V3.56934H163.928V10.3574H164.919V13.5225H164.249V11H154.487V3.56934H155.164V10.3574H158.869V3.56934H159.546V10.3574ZM169.506 11.1367C168.426 11.1367 167.583 10.804 166.977 10.1387C166.375 9.47331 166.074 8.54134 166.074 7.34277C166.074 6.15788 166.366 5.20996 166.949 4.49902C167.533 3.78353 168.319 3.42578 169.308 3.42578C170.183 3.42578 170.873 3.73112 171.379 4.3418C171.885 4.95247 172.138 5.7819 172.138 6.83008V7.37695H166.785C166.794 8.39779 167.031 9.17708 167.496 9.71484C167.965 10.2526 168.635 10.5215 169.506 10.5215C169.93 10.5215 170.301 10.4919 170.62 10.4326C170.944 10.3734 171.352 10.2458 171.844 10.0498V10.665C171.424 10.8473 171.037 10.9704 170.682 11.0342C170.326 11.1025 169.934 11.1367 169.506 11.1367ZM169.308 4.02734C168.592 4.02734 168.018 4.26432 167.585 4.73828C167.152 5.20768 166.899 5.88672 166.826 6.77539H171.42C171.42 5.91406 171.233 5.24186 170.859 4.75879C170.486 4.27116 169.968 4.02734 169.308 4.02734ZM174.865 3.56934V6.83008H179.582V3.56934H180.252V11H179.582V7.41797H174.865V11H174.188V3.56934H174.865ZM183.424 6.7002H185.789C187.535 6.7002 188.407 7.38607 188.407 8.75781C188.407 9.46419 188.163 10.0156 187.676 10.4121C187.188 10.804 186.489 11 185.577 11H182.747V3.56934H183.424V6.7002ZM183.424 7.34277V10.3574H185.687C186.329 10.3574 186.824 10.223 187.17 9.9541C187.516 9.68522 187.689 9.2819 187.689 8.74414C187.689 8.25195 187.537 7.89648 187.231 7.67773C186.926 7.45443 186.397 7.34277 185.646 7.34277H183.424ZM190.376 11H189.706V3.56934H190.376V11Z" fill="white"/>
</svg>
